HIERARCHY
ROOT Hips
{
    OFFSET 0.000000 0.000000 0.000000
    CHANNELS 6 Xposition Yposition Zposition Zrotation Yrotation Xrotation
    JOINT Chest
    {
        OFFSET 0.000000 1.634758 -0.000000
        CHANNELS 3 Zrotation Yrotation Xrotation
        JOINT Chest2
        {
            OFFSET 0.000000 2.197341 0.000000
            CHANNELS 3 Zrotation Yrotation Xrotation
            JOINT Neck
            {
                OFFSET 0.000000 0.961544 0.000000
                CHANNELS 3 Zrotation Yrotation Xrotation
                JOINT Head
                {
                    OFFSET 0.000000 0.632542 -0.032565
                    CHANNELS 3 Zrotation Yrotation Xrotation
                    End Site
                    {
                        OFFSET -0.000001 0.439502 2.922845
                    }
                }
            }
            JOINT LeftCollar
            {
                OFFSET 0.167536 0.778237 -0.168280
                CHANNELS 3 Zrotation Yrotation Xrotation
                JOINT LeftShoulder
                {
                    OFFSET 0.831514 -0.002900 0.006458
                    CHANNELS 3 Zrotation Yrotation Xrotation
                    JOINT LeftElbow
                    {
                        OFFSET 2.272872 -0.026639 0.059314
                        CHANNELS 3 Zrotation Yrotation Xrotation
                        JOINT LeftWrist
                        {
                            OFFSET 2.081982 -0.024402 0.054333
                            CHANNELS 3 Zrotation Yrotation Xrotation
                            JOINT LeftHandThumb1
                            {
                                OFFSET 0.218903 -0.128645 0.283837
                                CHANNELS 3 Zrotation Yrotation Xrotation
                                JOINT LeftHandThumb2
                                {
                                    OFFSET 0.137157 -0.025101 0.077902
                                    CHANNELS 3 Zrotation Yrotation Xrotation
                                    JOINT LeftHandThumb3
                                    {
                                        OFFSET 0.163592 -0.061323 0.054922
                                        CHANNELS 3 Zrotation Yrotation Xrotation
                                        End Site
                                        {
                                            OFFSET 0.242814 -0.064473 0.093387
                                        }
                                    }
                                }
                            }
                            JOINT LeftHandFore1
                            {
                                OFFSET 0.767340 -0.016076 0.196678
                                CHANNELS 3 Zrotation Yrotation Xrotation
                                JOINT LeftHandFore2
                                {
                                    OFFSET 0.194910 -0.087741 0.036151
                                    CHANNELS 3 Zrotation Yrotation Xrotation
                                    JOINT LeftHandFore3
                                    {
                                        OFFSET 0.092875 -0.089218 0.013319
                                        CHANNELS 3 Zrotation Yrotation Xrotation
                                        End Site
                                        {
                                            OFFSET 0.097281 -0.166262 0.016137
                                        }
                                    }
                                }
                            }
                            JOINT LeftHandMiddle1
                            {
                                OFFSET 0.709887 -0.008320 0.018526
                                CHANNELS 3 Zrotation Yrotation Xrotation
                                JOINT LeftHandMiddle2
                                {
                                    OFFSET 0.224654 -0.096229 0.018290
                                    CHANNELS 3 Zrotation Yrotation Xrotation
                                    JOINT LeftHandMiddle3
                                    {
                                        OFFSET 0.112279 -0.093619 0.003456
                                        CHANNELS 3 Zrotation Yrotation Xrotation
                                        End Site
                                        {
                                            OFFSET 0.124215 -0.200489 0.002258
                                        }
                                    }
                                }
                            }
                            JOINT LeftHandRing1
                            {
                                OFFSET 0.743817 -0.005823 -0.153668
                                CHANNELS 3 Zrotation Yrotation Xrotation
                                JOINT LeftHandRing2
                                {
                                    OFFSET 0.318812 -0.149696 -0.026139
                                    CHANNELS 3 Zrotation Yrotation Xrotation
                                    JOINT LeftHandRing3
                                    {
                                        OFFSET 0.098079 -0.093764 -0.013936
                                        CHANNELS 3 Zrotation Yrotation Xrotation
                                        End Site
                                        {
                                            OFFSET 0.052405 -0.107176 -0.013671
                                        }
                                    }
                                }
                            }
                            JOINT LeftHandLittle1
                            {
                                OFFSET 0.689408 -0.053302 -0.308304
                                CHANNELS 3 Zrotation Yrotation Xrotation
                                JOINT LeftHandLittle2
                                {
                                    OFFSET 0.175349 -0.075526 -0.040032
                                    CHANNELS 3 Zrotation Yrotation Xrotation
                                    JOINT LeftHandLittle3
                                    {
                                        OFFSET 0.079813 -0.085301 -0.029154
                                        CHANNELS 3 Zrotation Yrotation Xrotation
                                        End Site
                                        {
                                            OFFSET 0.098803 -0.155258 -0.049208
                                        }
                                    }
                                }
                            }
                        }
                    }
                }
            }
            JOINT RightCollar
            {
                OFFSET -0.167536 0.778237 -0.168280
                CHANNELS 3 Zrotation Yrotation Xrotation
                JOINT RightShoulder
                {
                    OFFSET -0.831514 -0.002900 0.006457
                    CHANNELS 3 Zrotation Yrotation Xrotation
                    JOINT RightElbow
                    {
                        OFFSET -2.272872 -0.026639 0.059313
                        CHANNELS 3 Zrotation Yrotation Xrotation
                        JOINT RightWrist
                        {
                            OFFSET -2.081982 -0.024402 0.054331
                            CHANNELS 3 Zrotation Yrotation Xrotation
                            JOINT RightHandThumb1
                            {
                                OFFSET -0.218911 -0.128571 0.283837
                                CHANNELS 3 Zrotation Yrotation Xrotation
                                JOINT RightHandThumb2
                                {
                                    OFFSET -0.137157 -0.025101 0.077902
                                    CHANNELS 3 Zrotation Yrotation Xrotation
                                    JOINT RightHandThumb3
                                    {
                                        OFFSET -0.177153 -0.015995 0.043594
                                        CHANNELS 3 Zrotation Yrotation Xrotation
                                        End Site
                                        {
                                            OFFSET -0.239268 0.020167 0.119082
                                        }
                                    }
                                }
                            }
                            JOINT RightHandFore1
                            {
                                OFFSET -0.767344 -0.015991 0.196679
                                CHANNELS 3 Zrotation Yrotation Xrotation
                                JOINT RightHandFore2
                                {
                                    OFFSET -0.215182 -0.023988 0.010864
                                    CHANNELS 3 Zrotation Yrotation Xrotation
                                    JOINT RightHandFore3
                                    {
                                        OFFSET -0.127999 -0.018333 0.006493
                                        CHANNELS 3 Zrotation Yrotation Xrotation
                                        End Site
                                        {
                                            OFFSET -0.191454 -0.022769 0.013914
                                        }
                                    }
                                }
                            }
                            JOINT RightHandMiddle1
                            {
                                OFFSET -0.709887 -0.008302 0.018525
                                CHANNELS 3 Zrotation Yrotation Xrotation
                                JOINT RightHandMiddle2
                                {
                                    OFFSET -0.243299 -0.028704 0.006624
                                    CHANNELS 3 Zrotation Yrotation Xrotation
                                    JOINT RightHandMiddle3
                                    {
                                        OFFSET -0.145226 -0.016685 0.003951
                                        CHANNELS 3 Zrotation Yrotation Xrotation
                                        End Site
                                        {
                                            OFFSET -0.233653 -0.031672 0.005780
                                        }
                                    }
                                }
                            }
                            JOINT RightHandRing1
                            {
                                OFFSET -0.743819 -0.005785 -0.153669
                                CHANNELS 3 Zrotation Yrotation Xrotation
                                JOINT RightHandRing2
                                {
                                    OFFSET -0.349398 -0.050607 -0.009675
                                    CHANNELS 3 Zrotation Yrotation Xrotation
                                    JOINT RightHandRing3
                                    {
                                        OFFSET -0.134041 -0.023657 -0.008853
                                        CHANNELS 3 Zrotation Yrotation Xrotation
                                        End Site
                                        {
                                            OFFSET -0.116640 -0.027483 -0.007747
                                        }
                                    }
                                }
                            }
                            JOINT RightHandLittle1
                            {
                                OFFSET -0.689403 -0.053298 -0.308303
                                CHANNELS 3 Zrotation Yrotation Xrotation
                                JOINT RightHandLittle2
                                {
                                    OFFSET -0.193254 -0.018751 -0.018875
                                    CHANNELS 3 Zrotation Yrotation Xrotation
                                    JOINT RightHandLittle3
                                    {
                                        OFFSET -0.116992 -0.025993 -0.011520
                                        CHANNELS 3 Zrotation Yrotation Xrotation
                                        End Site
                                        {
                                            OFFSET -0.188440 -0.012318 -0.025042
                                        }
                                    }
                                }
                            }
                        }
                    }
                }
            }
        }
    }
    JOINT LeftHip
    {
        OFFSET 0.685143 0.673822 -0.044491
        CHANNELS 3 Zrotation Yrotation Xrotation
        JOINT LeftKnee
        {
            OFFSET 0.085364 -3.750208 0.017676
            CHANNELS 3 Zrotation Yrotation Xrotation
            JOINT LeftAnkle
            {
                OFFSET 0.094583 -4.155206 0.019585
                CHANNELS 3 Zrotation Yrotation Xrotation
                JOINT LeftToe
                {
                    OFFSET -0.000000 -0.395925 0.621478
                    CHANNELS 3 Zrotation Yrotation Xrotation
                    End Site
                    {
                        OFFSET -0.000000 -0.077878 0.321152
                    }
                }
            }
        }
    }
    JOINT RightHip
    {
        OFFSET -0.685143 0.673822 -0.044492
        CHANNELS 3 Zrotation Yrotation Xrotation
        JOINT RightKnee
        {
            OFFSET -0.085364 -3.750208 0.017677
            CHANNELS 3 Zrotation Yrotation Xrotation
            JOINT RightAnkle
            {
                OFFSET -0.094583 -4.155206 0.019585
                CHANNELS 3 Zrotation Yrotation Xrotation
                JOINT RightToe
                {
                    OFFSET -0.000000 -0.395925 0.621478
                    CHANNELS 3 Zrotation Yrotation Xrotation
                    End Site
                    {
                        OFFSET -0.000000 -0.077878 0.321152
                    }
                }
            }
        }
    }
}
MOTION
Frames: 7
Frame Time: 0.033333
-2.600505 8.630753 -1.673522 -0.000003 -40.251373 -0.000011 2.712155 0.082562 3.100667 0.366595 -0.043524 -2.685600 -2.607649 12.748475 -1.721322 -1.367363 24.868103 -1.183724 -13.807738 -3.223739 -0.025958 -58.877979 3.486965 2.467928 0.112558 -31.350405 -0.408432 0.229003 5.369924 -26.544369 0.000007 0.000007 -0.000005 0.000002 -0.000003 -0.000005 -0.000003 -0.000012 -0.000002 0.000000 -0.000002 0.000000 -0.000005 0.000003 0.000002 -0.000008 -0.000003 0.000000 0.000007 -0.000003 -0.000010 -0.000023 0.000005 0.000000 -0.000022 -0.000000 0.000000 -0.000009 -0.000009 -0.000014 -0.000023 0.000002 0.000002 0.000029 -0.000003 0.000005 0.000003 -0.000005 -0.000003 0.000026 -0.000002 0.000000 -0.000007 0.000002 0.000003 14.664744 0.204723 0.014839 55.090832 -16.242443 37.959496 -0.294176 46.162331 -0.697635 1.825774 -5.759170 -26.693192 -0.000004 -0.000009 -0.000003 17.018913 0.138931 10.952860 26.098328 -20.450737 1.592169 11.566762 4.299035 -0.922099 11.390267 2.467313 1.994501 11.240586 -0.404147 -1.507421 39.815193 1.248818 -3.437704 39.674713 5.506447 6.412962 40.266476 1.204709 8.377833 39.318169 -3.258989 2.431335 39.934280 7.574101 2.762239 39.861610 2.755471 3.819296 41.202129 -5.216269 5.472402 36.560413 6.323629 -9.473689 45.298843 5.661655 2.051430 -3.795198 -0.245975 8.052857 0.000000 0.000002 0.000000 1.783759 3.616875 -12.534710 -0.000001 -0.000005 0.000003 -12.147709 0.772185 1.149743 -0.000002 -0.000000 0.000000 -0.536181 -1.113488 -16.279596 -0.000002 -0.000000 0.000000
-2.654727 8.632158 -1.738319 0.000002 -26.807104 -0.000012 3.280497 0.296438 1.973674 1.117972 -0.171699 -1.025339 -2.536386 12.886470 -2.105997 -1.394636 25.302477 -2.003032 -13.773355 -4.081164 -0.060665 -59.826828 0.021756 3.832895 0.112560 -31.350370 -0.408420 -0.083215 5.699262 -28.909756 -0.000010 0.000003 -0.000001 0.000004 0.000002 -0.000003 -0.000003 -0.000015 -0.000005 -0.000008 0.000002 -0.000008 -0.000008 0.000002 0.000002 -0.000003 -0.000007 0.000003 -0.000002 -0.000000 -0.000012 -0.000020 0.000009 0.000003 -0.000020 0.000002 0.000000 -0.000017 -0.000002 -0.000008 -0.000024 0.000003 -0.000000 0.000031 -0.000003 0.000006 -0.000005 -0.000000 0.000001 0.000026 -0.000003 0.000001 -0.000001 0.000003 -0.000001 14.191208 1.100297 0.043803 51.792702 -14.758571 38.997944 -0.380474 50.533688 -0.813424 -6.278787 -3.451410 -35.545441 -0.000008 -0.000002 -0.000010 22.951321 -2.935365 9.456576 43.757889 -31.360407 -3.086087 6.281961 2.342648 -0.500981 6.182106 1.354136 1.083440 6.105928 -0.206510 -0.819332 59.409470 0.017154 -4.934418 59.043003 7.077898 10.283202 59.745026 0.383479 12.514881 58.137997 -4.059515 3.028091 59.418262 10.847047 5.373597 59.196068 3.660235 6.262693 60.718292 -4.715156 7.026535 53.918598 10.918014 -12.969439 67.309402 8.281038 4.465718 -3.325669 -0.312980 7.810111 0.000000 -0.000000 0.000000 1.785057 3.189399 -13.184118 -0.000002 -0.000003 0.000003 -10.765394 0.626556 4.422574 0.000000 -0.000002 0.000000 0.910524 -0.414934 -15.878144 0.000000 -0.000000 -0.000003
-2.713185 8.633534 -1.776585 -0.000003 -13.615888 -0.000010 3.716977 0.528810 0.408839 1.876356 -0.313309 -0.467133 -2.392969 13.141881 -1.906864 -1.393327 25.281687 -1.549577 -13.855118 -4.816566 -0.096961 -61.358528 -4.020089 5.300436 0.095425 -29.163986 -0.374169 -0.288912 5.906168 -30.410892 0.000000 0.000005 0.000003 0.000002 -0.000003 -0.000005 -0.000000 -0.000014 -0.000006 -0.000002 0.000002 -0.000005 -0.000006 -0.000003 0.000003 -0.000003 0.000003 0.000002 0.000010 -0.000010 -0.000009 -0.000021 0.000003 0.000003 -0.000021 0.000003 -0.000001 -0.000005 -0.000010 -0.000009 -0.000024 0.000009 -0.000000 0.000033 -0.000002 0.000005 0.000006 -0.000005 -0.000001 0.000023 -0.000002 0.000001 -0.000003 0.000003 -0.000001 13.567698 1.948174 0.071426 51.446693 -16.595106 35.160290 -0.662503 59.933941 -1.156303 -10.195907 -1.200398 -31.098391 -0.000005 -0.000010 -0.000002 27.947456 -5.571167 7.731136 61.420639 -38.871407 -11.500410 1.855730 0.693976 -0.148153 1.825237 0.403495 0.319942 1.803998 -0.057797 -0.242382 75.823082 -1.084180 -6.302684 75.291420 8.298486 13.432925 76.080948 -0.402629 15.883439 73.908310 -4.798173 3.425182 75.751343 13.653126 7.695326 75.433456 4.602614 8.568447 77.084511 -4.365590 8.217325 68.347527 15.014735 -15.657910 85.793747 10.743224 7.059360 -2.421796 -0.376592 7.547047 -0.000000 0.000001 0.000001 1.527815 2.767341 -13.143095 0.000001 0.000004 -0.000003 -8.890953 0.484723 7.365076 0.000000 0.000001 0.000000 1.909202 0.149294 -15.317120 -0.000001 -0.000005 0.000007
-2.775170 8.634884 -1.779932 0.000000 -0.000056 -0.000010 3.657229 0.651186 -1.690321 2.218817 -0.331720 -1.750141 -2.161948 13.364587 -1.008618 -1.410757 25.557865 0.122723 -14.153447 -5.592607 -0.119112 -64.040878 -10.398064 7.127599 0.048245 -21.391361 -0.262744 -0.363031 5.978094 -30.935915 -0.000004 0.000007 0.000002 0.000002 0.000002 -0.000001 -0.000002 -0.000009 -0.000003 -0.000009 0.000003 -0.000008 -0.000009 0.000007 0.000003 -0.000005 -0.000003 0.000000 0.000001 -0.000002 -0.000013 -0.000020 0.000003 0.000004 -0.000020 0.000009 0.000002 -0.000010 0.000003 -0.000015 -0.000023 0.000002 0.000002 0.000029 -0.000005 0.000008 0.000004 -0.000000 -0.000005 0.000024 0.000002 0.000005 -0.000008 -0.000002 0.000003 12.673138 1.984394 0.082076 49.282547 -21.411268 32.328773 -1.307268 70.266846 -1.864962 -7.150755 0.780331 -23.425255 -0.000005 -0.000012 -0.000004 30.056593 -6.679969 6.876945 69.804482 -41.251289 -16.355680 0.000000 -0.000005 -0.000008 0.000001 -0.000003 0.000001 -0.000002 0.000003 0.000000 82.706772 -1.556719 -6.911487 82.108376 8.791016 14.722842 82.936569 -0.752043 17.263521 80.523399 -5.119263 3.560010 82.608238 14.838479 8.710469 82.255516 5.028972 9.617327 83.951347 -4.229963 8.682765 74.382294 16.779886 -16.708124 93.572746 11.803336 8.321473 -0.778289 -0.446495 6.802870 -0.000000 -0.000000 0.000000 0.641663 2.219136 -12.103793 0.000001 0.000002 -0.000001 -6.363292 0.344355 10.142685 0.000000 0.000000 0.000001 0.099282 0.061887 -15.787478 -0.000003 -0.000012 0.000002
-2.839979 8.637052 -1.712187 0.000002 -0.000056 -1.847227 3.522940 0.694050 -1.363699 2.491639 -0.313989 -3.001029 -4.571836 13.053169 1.421667 -1.367875 24.876328 4.715418 -14.225856 -5.211246 -0.129393 -63.687702 -9.523690 6.270383 0.044418 -20.584660 -0.251921 -0.068325 5.935051 -30.885395 0.000005 0.000009 0.000000 -0.000001 -0.000009 -0.000004 -0.000002 -0.000009 -0.000003 -0.000008 0.000003 -0.000002 -0.000006 0.000005 0.000004 -0.000007 -0.000005 -0.000001 0.000007 -0.000002 -0.000004 -0.000024 0.000003 0.000004 -0.000021 0.000003 0.000001 -0.000010 -0.000003 -0.000005 -0.000023 0.000007 0.000000 0.000029 -0.000010 0.000003 -0.000006 -0.000000 0.000004 0.000029 0.000002 0.000000 -0.000011 0.000002 0.000002 11.726022 1.976066 0.084902 46.516033 -25.388737 33.041996 -3.668655 81.140495 -4.291528 -2.852426 1.716909 -8.770339 -0.000003 -0.000003 0.000005 30.056593 -6.679968 6.876949 69.804497 -41.251297 -16.355680 0.000005 -0.000002 -0.000007 -0.000002 -0.000000 -0.000001 -0.000002 -0.000000 0.000000 82.706772 -1.556717 -6.911484 82.108376 8.791017 14.722842 82.936569 -0.752045 17.263519 80.523384 -5.119262 3.560008 82.608238 14.838475 8.710466 82.255516 5.028969 9.617327 83.951347 -4.229964 8.682765 74.382301 16.779884 -16.708122 93.572739 11.803345 8.321475 -0.432818 -0.440015 8.971575 -0.000000 -0.000000 0.000000 0.950332 2.206371 -11.962630 0.000001 0.000006 0.000004 -5.950066 0.228894 11.836410 0.000001 0.000000 -0.000001 0.058545 0.333256 -14.793595 0.000003 0.000012 0.000000
-2.906905 8.647213 -1.559396 -0.000003 -0.000052 -6.252127 3.253247 0.581580 1.293231 2.584578 -0.252221 -4.054377 -7.175854 12.692539 3.198301 -1.305658 23.874023 8.090174 -14.302636 -4.952162 -0.126595 -63.458447 -9.277860 5.575541 0.037260 -18.959568 -0.230455 0.719888 5.811362 -30.747931 -0.000009 0.000005 -0.000005 0.000001 0.000002 0.000000 -0.000002 -0.000014 -0.000003 -0.000015 0.000007 0.000000 -0.000006 -0.000000 -0.000003 -0.000007 -0.000007 0.000005 0.000003 -0.000007 -0.000005 -0.000020 0.000007 0.000003 -0.000018 -0.000002 0.000000 -0.000013 -0.000007 -0.000007 -0.000026 -0.000003 -0.000003 0.000033 -0.000002 0.000005 -0.000009 -0.000000 -0.000002 0.000023 -0.000003 -0.000002 -0.000005 0.000003 0.000003 10.799123 1.993967 0.075948 43.993763 -28.294792 33.757355 -131.962265 89.092346 -132.640961 -0.103930 1.678254 -3.751899 0.000010 -0.000010 0.000002 30.056580 -6.679965 6.876950 69.804489 -41.251297 -16.355684 0.000007 0.000003 -0.000008 0.000000 0.000003 -0.000001 0.000000 -0.000002 0.000003 82.706779 -1.556718 -6.911479 82.108376 8.791017 14.722840 82.936569 -0.752044 17.263521 80.523392 -5.119258 3.560009 82.608238 14.838473 8.710472 82.255516 5.028972 9.617331 83.951347 -4.229955 8.682768 74.382294 16.779888 -16.708124 93.572739 11.803340 8.321473 -0.079064 -0.352172 14.064029 0.000000 0.000000 0.000001 1.252698 2.014574 -11.971578 0.000000 0.000001 -0.000000 -5.607819 0.041562 16.518650 0.000000 0.000000 0.000001 0.035558 0.851516 -14.143112 -0.000001 -0.000002 0.000003
-2.975242 8.671618 -1.374135 -0.000005 -0.000057 -11.509584 2.799984 0.382095 4.800749 2.435907 -0.167097 -4.962196 -9.802184 12.501593 4.772133 -1.284120 23.523308 11.018167 -14.354529 -4.787500 -0.111922 -63.113621 -9.488053 4.935407 0.028632 -16.745838 -0.201863 1.857587 5.615047 -30.546488 -0.000007 0.000007 0.000003 -0.000001 0.000002 -0.000009 0.000001 -0.000007 0.000000 -0.000010 0.000015 -0.000005 -0.000001 0.000010 0.000003 -0.000009 -0.000007 0.000002 -0.000006 -0.000005 -0.000017 -0.000017 0.000005 0.000003 -0.000021 0.000002 0.000000 -0.000015 0.000002 -0.000014 -0.000021 0.000005 0.000003 0.000029 -0.000003 0.000003 -0.000007 0.000007 -0.000003 0.000021 -0.000003 0.000000 -0.000009 0.000003 0.000000 10.015009 2.030498 0.059860 41.965492 -29.967052 34.211689 -174.447144 82.127922 -175.168472 2.648554 1.485849 1.252823 -0.000019 -0.000006 -0.000010 30.056589 -6.679967 6.876951 69.804497 -41.251293 -16.355680 -0.000015 -0.000000 -0.000005 0.000002 -0.000000 -0.000003 0.000002 0.000002 0.000002 82.706787 -1.556715 -6.911481 82.108368 8.791016 14.722842 82.936569 -0.752043 17.263527 80.523399 -5.119261 3.560005 82.608231 14.838473 8.710472 82.255516 5.028967 9.617328 83.951355 -4.229962 8.682768 74.382294 16.779886 -16.708126 93.572746 11.803338 8.321474 0.322367 -0.225748 20.149416 0.000000 -0.000000 0.000000 1.552815 1.696418 -11.979650 0.000000 0.000000 0.000002 -5.349053 -0.168661 22.289490 0.000000 -0.000000 0.000001 0.029129 1.379433 -13.769615 -0.000002 -0.000006 0.000002
